<svg xmlns="http://www.w3.org/2000/svg" viewBox="0 0 136.41 105.07"><title>資產 1</title><g id="圖層_2" data-name="圖層 2"><g id="Graphic_Elements" data-name="Graphic Elements"><path d="M135.91,30.89,117.14,1.46A3.13,3.13,0,0,0,114.48,0H68.21a3.15,3.15,0,1,0,0,6.3h44.54l16.54,25.92L96.84,66.93,31.72.94A3.12,3.12,0,0,0,29.51,0l-.28,0c-.1,0-.19,0-.29,0H20.05a3.15,3.15,0,0,0-2.73,1.58L.42,31a3.14,3.14,0,0,0,.44,3.73l65.31,69.32a3.17,3.17,0,0,0,2.23,1h.23a2.93,2.93,0,0,0,2.14-1l64.79-69.32A3.15,3.15,0,0,0,135.91,30.89ZM28.16,6.3,92.54,71.54,68.46,97.3,7.05,32.13,21.88,6.3Z"/></g></g></svg>