<?xml version="1.0" encoding="iso-8859-1"?>
<!-- Generator: Adobe Illustrator 19.0.0, SVG Export Plug-In . SVG Version: 6.00 Build 0)  -->
<svg version="1.1" id="Layer_1" xmlns="http://www.w3.org/2000/svg" xmlns:xlink="http://www.w3.org/1999/xlink" x="0px" y="0px"
	 viewBox="0 0 512.832 512.832" style="enable-background:new 0 0 512.832 512.832;" xml:space="preserve">
<g>
	<g>
		<g>
			<path d="M480.416,309.333c0-15.125-31.168-70.912-46.72-97.813c1.429-7.68,4.053-25.237,4.053-51.52
				c0-45.547-60.288-160-202.667-160C95.285,0,32.416,106.048,32.416,181.333c0,53.248,31.445,107.819,56.725,151.616
				c14.72,25.536,28.608,49.643,28.608,61.717c0,27.157-44.16,80.981-61.184,99.435c-3.989,4.331-3.712,11.072,0.619,15.061
				c2.048,1.92,4.651,2.837,7.232,2.837c2.88,0,5.739-1.152,7.829-3.435c6.848-7.403,66.837-73.536,66.837-113.899
				c0-17.792-13.888-41.877-31.467-72.363c-24-41.6-53.867-93.419-53.867-140.971c0-52.203,44.331-160,181.333-160
				c136,0,181.333,109.312,181.333,138.667c0,32.64-4.309,50.581-4.352,50.795c-0.661,2.688-0.256,5.547,1.131,7.936
				c21.461,36.864,45.12,82.069,45.909,90.453c-0.981,2.944-12.032,8.64-23.552,11.072c-2.987,0.619-5.547,2.496-7.061,5.12
				c-1.515,2.645-1.835,5.803-0.875,8.683l8.576,25.749l-5.995,5.995c-2.624,2.624-3.392,6.251-2.709,9.643
				c-1.472,0.704-2.944,1.536-4.352,2.773c-3.072,2.709-6.72,7.787-6.72,16.448c0,8.533,3.584,13.867,6.208,17.771
				c2.581,3.883,4.459,6.699,4.459,14.229c0,8.32-3.179,14.72-44.395,21.483c-28.181,4.608-94.272,28.267-94.272,53.184
				c0,5.888,4.629,11.499,10.517,11.499c5.909,0,10.517-3.947,10.539-9.835c3.776-7.616,41.643-28.075,76.672-33.813
				c26.261-4.267,62.272-10.155,62.272-42.517c0-14.059-4.864-21.312-8.085-26.112c-2.155-3.221-2.581-4.011-3.904-5.973
				c5.845,0.832,11.179-3.435,11.904-9.259c0.277-2.24-0.32-4.331-1.301-6.187l8.917-8.917c2.859-2.859,3.861-7.083,2.581-10.923
				l-7.125-21.376C463.669,333.696,480.416,324.992,480.416,309.333z"/>
			<path d="M331.04,162.283c0-27.157-19.093-50.773-44.437-54.891c-15.659-2.517-31.467,1.813-43.413,11.968
				c-3.051,2.603-5.781,5.504-8.128,8.64c-2.347-3.136-5.077-6.037-8.128-8.64c-11.925-10.155-27.733-14.507-43.413-11.968
				c-25.323,4.139-44.437,27.755-44.437,56.277c0,14.251,5.547,27.648,15.616,37.717l72.832,72.832
				c2.091,2.069,4.821,3.115,7.552,3.115c2.731,0,5.461-1.045,7.509-3.136l72.832-72.832
				C325.493,191.275,331.04,177.92,331.04,162.283z M300.384,186.304l-65.301,65.28l-65.301-65.28
				c-6.037-6.037-9.365-14.101-9.365-24c0-16.832,11.413-31.36,26.539-33.835c1.856-0.32,3.691-0.469,5.504-0.469
				c7.616,0,14.805,2.603,20.672,7.595c7.168,6.123,11.285,15.019,11.285,24.405c0,5.888,4.779,10.667,10.667,10.667
				s10.667-4.779,10.667-10.667c0-9.387,4.117-18.283,11.285-24.384c7.253-6.187,16.597-8.661,26.155-7.168
				c15.147,2.475,26.56,17.003,26.56,35.221C309.749,172.096,306.336,180.331,300.384,186.304z"/>
		</g>
	</g>
</g>
<g>
</g>
<g>
</g>
<g>
</g>
<g>
</g>
<g>
</g>
<g>
</g>
<g>
</g>
<g>
</g>
<g>
</g>
<g>
</g>
<g>
</g>
<g>
</g>
<g>
</g>
<g>
</g>
<g>
</g>
</svg>
