<?xml version="1.0" encoding="iso-8859-1"?>
<!-- Generator: Adobe Illustrator 16.0.0, SVG Export Plug-In . SVG Version: 6.00 Build 0)  -->
<!DOCTYPE svg PUBLIC "-//W3C//DTD SVG 1.1//EN" "http://www.w3.org/Graphics/SVG/1.1/DTD/svg11.dtd">
<svg version="1.1" id="Capa_1" xmlns="http://www.w3.org/2000/svg" xmlns:xlink="http://www.w3.org/1999/xlink" x="0px" y="0px"
	 width="535.417px" height="535.417px" viewBox="0 0 535.417 535.417" style="enable-background:new 0 0 535.417 535.417;"
	 xml:space="preserve">
<g>
	<path d="M500.365,167.693c-9.12-44.77-3.293-138.514-158.295-163.234C187.062-20.285,47.398,58.361,82.529,230.248
		c0,31.33-62.035,79.965-47.088,96.406c14.946,16.441,40.31,17.083,40.31,17.083s-16.5,31.33-9.073,39.982
		c7.409,8.653,28.025,4.951,28.025,4.951s-19.156,13.803-19.156,24.511c0,10.72,32.345,24.954,32.345,24.954
		s-5.932,59.285,42.64,55.174c48.57-4.109,56.75-17.83,56.75-17.83l14.398,59.938H409.68l-6.621-130.27
		C403.059,405.159,518.511,279.829,500.365,167.693z M357.764,260.562c3.854-7.077,4.975-15.636,2.394-23.927
		c-5.079-16.254-22.35-25.328-38.616-20.271c-16.254,5.056-25.316,22.35-20.271,38.604c2.604,8.291,8.361,14.701,15.565,18.333
		l4.099,13.172l-68.813,21.428l-26.507-85.092l-10.76,3.352c-4.233,8.337-11.66,15.052-21.299,18.053
		c-18.87,5.885-38.919-4.647-44.793-23.518c-5.879-18.87,4.665-38.932,23.523-44.805c9.634-2.989,19.571-1.705,27.763,2.768
		l10.772-3.352l-23.734-76.228l68.825-21.427l3.24,10.404c-3.859,7.064-4.975,15.612-2.388,23.915
		c5.056,16.243,22.332,25.328,38.599,20.26c16.254-5.068,25.339-22.35,20.271-38.604c-2.593-8.302-8.361-14.713-15.554-18.345
		l-3.247-10.404l70.18-21.848l24.919,80.035l-7.274,2.265c-7.064-3.865-15.636-4.986-23.927-2.394
		c-16.255,5.056-25.339,22.338-20.271,38.593s22.351,25.339,38.616,20.271c8.279-2.592,14.701-8.361,18.321-15.554l7.286-2.254
		l27.359,87.87l-70.167,21.848L357.764,260.562z"/>
</g>
<g>
</g>
<g>
</g>
<g>
</g>
<g>
</g>
<g>
</g>
<g>
</g>
<g>
</g>
<g>
</g>
<g>
</g>
<g>
</g>
<g>
</g>
<g>
</g>
<g>
</g>
<g>
</g>
<g>
</g>
</svg>
