<svg width="24px" height="24px" viewBox="0 0 24 24" id="user_avatar_square_outline" data-name="user avatar square outline" xmlns="http://www.w3.org/2000/svg">
  <rect id="Rectangle" width="24" height="24" fill="none"/>
  <g id="Rectangle_2" data-name="Rectangle 2" transform="translate(3 3)" fill="none" stroke="#000" stroke-miterlimit="10" stroke-width="1.5">
    <rect width="18" height="18" rx="2" stroke="none"/>
    <rect x="0.75" y="0.75" width="16.5" height="16.5" rx="1.25" fill="none"/>
  </g>
  <path id="Combined_Shape" data-name="Combined Shape" d="M0,12C0,8.25,4.5,9,4.5,7.5A2.2,2.2,0,0,0,4.089,6,3.453,3.453,0,0,1,3,3.375,3.2,3.2,0,0,1,6,0,3.2,3.2,0,0,1,9,3.375,3.4,3.4,0,0,1,7.892,6,2.3,2.3,0,0,0,7.5,7.5C7.5,9,12,8.25,12,12" transform="translate(6.002 8)" fill="none" stroke="#000" stroke-miterlimit="10" stroke-width="1.5"/>
</svg>
